<svg xmlns="http://www.w3.org/2000/svg" width="41" height="60" viewBox="0 0 41 60">
  <metadata><?xpacket begin="﻿" id="W5M0MpCehiHzreSzNTczkc9d"?>
<x:xmpmeta xmlns:x="adobe:ns:meta/" x:xmptk="Adobe XMP Core 5.6-c142 79.160924, 2017/07/13-01:06:39        ">
   <rdf:RDF xmlns:rdf="http://www.w3.org/1999/02/22-rdf-syntax-ns#">
      <rdf:Description rdf:about=""/>
   </rdf:RDF>
</x:xmpmeta>
                                                                                                    
                                                                                                    
                                                                                                    
                                                                                                    
                                                                                                    
                                                                                                    
                                                                                                    
                                                                                                    
                                                                                                    
                                                                                                    
                                                                                                    
                                                                                                    
                                                                                                    
                                                                                                    
                                                                                                    
                                                                                                    
                                                                                                    
                                                                                                    
                                                                                                    
                                                                                                    
                           
<?xpacket end="w"?></metadata>
<defs>
    <style>
      .cls-1 {
        fill: #bd4f1a;
        fill-rule: evenodd;
      }
    </style>
  </defs>
  <path id="advantage-5" class="cls-1" d="M691.087,3217H661.913a5.951,5.951,0,0,1-5.913-5.98V3175.1a10.117,10.117,0,0,1,10.047-10.16H670.6v-0.95h-0.367a1.115,1.115,0,0,1,0-2.23H670.6v-3.65a1.107,1.107,0,0,1,1.1-1.11h9.6a1.107,1.107,0,0,1,1.1,1.11v3.65h0.366a1.115,1.115,0,0,1,0,2.23H682.4v1.82a20.688,20.688,0,0,1,14.6,19.86v25.35A5.952,5.952,0,0,1,691.087,3217ZM680.2,3159.22h-7.4v2.54h7.4v-2.54Zm14.6,26.45a18.441,18.441,0,0,0-13.772-17.93,1.115,1.115,0,0,1-.829-1.08v-2.67h-7.4v2.06a1.107,1.107,0,0,1-1.1,1.11h-5.651a7.9,7.9,0,0,0-7.848,7.94v35.92a3.735,3.735,0,0,0,3.714,3.75h29.174a3.735,3.735,0,0,0,3.714-3.75v-25.35Zm-3.3,11.63h-30a1.115,1.115,0,0,1,0-2.23h30A1.115,1.115,0,0,1,691.5,3197.3Zm-19.8-4.77h-9.889a1.1,1.1,0,0,1-1.1-1.11V3175.1a5.374,5.374,0,0,1,5.338-5.4H671.7a1.107,1.107,0,0,1,1.1,1.11v20.61A1.1,1.1,0,0,1,671.7,3192.53Zm-1.1-20.6h-4.551a3.157,3.157,0,0,0-3.139,3.17v15.21h7.69v-18.38Zm-4.838,30.95a1.09,1.09,0,0,1,1.538.23l2.478,3.39,2.477-3.39a1.094,1.094,0,0,1,1.769,0l2.477,3.39,2.478-3.39a1.093,1.093,0,0,1,1.768,0l2.479,3.39,2.478-3.39a1.09,1.09,0,0,1,1.538-.23,1.126,1.126,0,0,1,.23,1.56l-3.362,4.59a1.093,1.093,0,0,1-1.768,0l-2.479-3.39-2.478,3.39a1.093,1.093,0,0,1-1.768,0l-2.477-3.39-2.478,3.39a1.093,1.093,0,0,1-1.768,0l-3.362-4.59A1.125,1.125,0,0,1,665.76,3202.88Z" transform="translate(-656 -3157)"/>
</svg>
