<svg xmlns="http://www.w3.org/2000/svg" width="48" height="62" viewBox="0 0 48 62">
  <metadata><?xpacket begin="﻿" id="W5M0MpCehiHzreSzNTczkc9d"?>
<x:xmpmeta xmlns:x="adobe:ns:meta/" x:xmptk="Adobe XMP Core 5.6-c142 79.160924, 2017/07/13-01:06:39        ">
   <rdf:RDF xmlns:rdf="http://www.w3.org/1999/02/22-rdf-syntax-ns#">
      <rdf:Description rdf:about=""/>
   </rdf:RDF>
</x:xmpmeta>
                                                                                                    
                                                                                                    
                                                                                                    
                                                                                                    
                                                                                                    
                                                                                                    
                                                                                                    
                                                                                                    
                                                                                                    
                                                                                                    
                                                                                                    
                                                                                                    
                                                                                                    
                                                                                                    
                                                                                                    
                                                                                                    
                                                                                                    
                                                                                                    
                                                                                                    
                                                                                                    
                           
<?xpacket end="w"?></metadata>
<defs>
    <style>
      .cls-1 {
        fill: #bd4f1a;
        fill-rule: evenodd;
      }
    </style>
  </defs>
  <path id="advantage-7" class="cls-1" d="M984,3277.05v10.84a1.122,1.122,0,0,1-1.129,1.11H937.129a1.121,1.121,0,0,1-1.129-1.11v-10.84a8.289,8.289,0,0,1,7.992-8.22l-4.323-12.78a1.126,1.126,0,0,1-.058-0.35v-13.12h-1.279a1.123,1.123,0,0,1-1.128-1.12v-3.56a4.714,4.714,0,0,1,4.74-4.67h9.705v-4.01h-1.43a1.11,1.11,0,1,1,0-2.22H969.63a1.11,1.11,0,1,1,0,2.22h-1.279v4.01h9.705a4.714,4.714,0,0,1,4.74,4.67v3.56a1.123,1.123,0,0,1-1.129,1.12h-1.279v13.12a1.1,1.1,0,0,1-.058.35l-4.323,12.78A8.29,8.29,0,0,1,984,3277.05Zm-17.906-47.83H953.906v4.01h12.188v-4.01Zm14.445,11.13v-2.45a2.468,2.468,0,0,0-2.483-2.44H941.943a2.467,2.467,0,0,0-2.482,2.44v2.45h29.617a1.115,1.115,0,1,1,0,2.23h-27.21v7.8h36.263v-7.8H974.6a1.115,1.115,0,1,1,0-2.23h5.944Zm-2.408,15.17v-3.07H941.868v3.07l4.5,13.3h27.263Zm3.611,21.53a6.055,6.055,0,0,0-6.094-6.01h-31.3a6.056,6.056,0,0,0-6.094,6.01v9.72h43.485v-9.72ZM960,3263.7l8.251-8.29,1.179,1.19-8.251,8.29Zm-6.857,0,8.251-8.29,1.179,1.19-8.251,8.29Z" transform="translate(-936 -3227)"/>
</svg>
