<svg xmlns="http://www.w3.org/2000/svg" width="56" height="64" viewBox="0 0 56 64">
  <metadata><?xpacket begin="﻿" id="W5M0MpCehiHzreSzNTczkc9d"?>
<x:xmpmeta xmlns:x="adobe:ns:meta/" x:xmptk="Adobe XMP Core 5.6-c142 79.160924, 2017/07/13-01:06:39        ">
   <rdf:RDF xmlns:rdf="http://www.w3.org/1999/02/22-rdf-syntax-ns#">
      <rdf:Description rdf:about=""/>
   </rdf:RDF>
</x:xmpmeta>
                                                                                                    
                                                                                                    
                                                                                                    
                                                                                                    
                                                                                                    
                                                                                                    
                                                                                                    
                                                                                                    
                                                                                                    
                                                                                                    
                                                                                                    
                                                                                                    
                                                                                                    
                                                                                                    
                                                                                                    
                                                                                                    
                                                                                                    
                                                                                                    
                                                                                                    
                                                                                                    
                           
<?xpacket end="w"?></metadata>
<defs>
    <style>
      .cls-1 {
        fill: #bd4f1a;
        fill-rule: evenodd;
      }
    </style>
  </defs>
  <path id="advantage-4" class="cls-1" d="M1318.98,2962.56a6.521,6.521,0,0,1-.74,2.8,0.052,0.052,0,0,1-.02.04l-11.78,19.05a4.7,4.7,0,0,0-.46,1.79v3.74a1.025,1.025,0,0,1-2.05,0v-3.74a6.6,6.6,0,0,1,.74-2.81,0.053,0.053,0,0,1,.02-0.03l11.78-19.05a4.58,4.58,0,0,0,.47-1.8l0.01-18.74a1.955,1.955,0,0,0-3.91,0v16.86a3.986,3.986,0,0,1-1.17,2.75l-9.16,9.15a1.026,1.026,0,0,1-1.45,0,1.045,1.045,0,0,1,0-1.45l9.17-9.14a1.955,1.955,0,0,0-2.77-2.76l-11.27,11.25a9.241,9.241,0,0,0-2.32,5.6v13.91a1.025,1.025,0,0,1-2.05,0v-13.91a11.294,11.294,0,0,1,2.92-7.04l11.28-11.26a4.011,4.011,0,0,1,4.78-.66v-13.3a3.959,3.959,0,0,1,.47-1.87,2.1,2.1,0,0,0-.56-0.08,1.961,1.961,0,0,0-1.96,1.95v9.82a1.02,1.02,0,0,1-2.04,0v-9.82a4,4,0,0,1,4-3.99,3.912,3.912,0,0,1,2.04.56,3.963,3.963,0,0,1,2.05-.56,4,4,0,0,1,4,3.99Zm-27.16-3.42a1.04,1.04,0,0,1-1.64,0l-13.39-17.68a8.918,8.918,0,0,1-1.83-5.44,9.015,9.015,0,0,1,16.02-5.68,9.042,9.042,0,0,1,16.06,5.68,8.918,8.918,0,0,1-1.83,5.44Zm6.18-30.1a6.986,6.986,0,0,0-5.85,3.18,8.921,8.921,0,0,1,.81,3.73,1.02,1.02,0,1,1-2.04,0,6.955,6.955,0,1,0-12.5,4.28l12.58,16.6,12.58-16.6A6.983,6.983,0,0,0,1298,2929.04Zm-22.91,24.59a1.02,1.02,0,1,1-2.04,0v-9.82a1.961,1.961,0,0,0-1.96-1.95,2.1,2.1,0,0,0-.56.08,3.959,3.959,0,0,1,.47,1.87v13.3a4.011,4.011,0,0,1,4.78.66l11.28,11.26a11.271,11.271,0,0,1,2.92,7.04v13.91a1.025,1.025,0,0,1-2.05,0v-13.91a9.241,9.241,0,0,0-2.32-5.6l-11.27-11.25a1.955,1.955,0,0,0-2.77,2.76l9.16,9.14a1.026,1.026,0,0,1,0,1.45,1.014,1.014,0,0,1-1.44,0l-9.16-9.15a3.986,3.986,0,0,1-1.17-2.75v-16.86a1.955,1.955,0,0,0-3.91,0l0.01,18.74a4.58,4.58,0,0,0,.47,1.8l11.78,19.05a0.053,0.053,0,0,1,.02.03,6.6,6.6,0,0,1,.74,2.81v3.74a1.025,1.025,0,0,1-2.05,0v-3.74a4.7,4.7,0,0,0-.46-1.79l-11.78-19.05a0.138,0.138,0,0,1-.03-0.04,6.51,6.51,0,0,1-.73-2.8l-0.02-18.75a4,4,0,0,1,4-3.99,3.9,3.9,0,0,1,2.04.56,4.007,4.007,0,0,1,6.05,3.43v9.82Z" transform="translate(-1263 -2927)"/>
</svg>
