<svg xmlns="http://www.w3.org/2000/svg" width="56" height="43" viewBox="0 0 56 43">
  <metadata><?xpacket begin="﻿" id="W5M0MpCehiHzreSzNTczkc9d"?>
<x:xmpmeta xmlns:x="adobe:ns:meta/" x:xmptk="Adobe XMP Core 5.6-c142 79.160924, 2017/07/13-01:06:39        ">
   <rdf:RDF xmlns:rdf="http://www.w3.org/1999/02/22-rdf-syntax-ns#">
      <rdf:Description rdf:about=""/>
   </rdf:RDF>
</x:xmpmeta>
                                                                                                    
                                                                                                    
                                                                                                    
                                                                                                    
                                                                                                    
                                                                                                    
                                                                                                    
                                                                                                    
                                                                                                    
                                                                                                    
                                                                                                    
                                                                                                    
                                                                                                    
                                                                                                    
                                                                                                    
                                                                                                    
                                                                                                    
                                                                                                    
                                                                                                    
                                                                                                    
                           
<?xpacket end="w"?></metadata>
<defs>
    <style>
      .cls-1 {
        fill: #bd4f1a;
        fill-rule: evenodd;
      }
    </style>
  </defs>
  <path id="advantage-2" class="cls-1" d="M1286.53,2780.78h-32.3a2.807,2.807,0,0,0-1.98,4.78,2.768,2.768,0,0,0,1.98.83h19.03a1.305,1.305,0,0,1,0,2.61h-19.03a5.324,5.324,0,0,1-3.83-1.61,5.416,5.416,0,0,1,3.83-9.22h32.3a2.885,2.885,0,0,0,0-5.77h-10.18a10,10,0,0,1-2.59,1.55c-3.36,1.4-7.89,1.52-12.62,1.52-2.22,0-4.57-.03-6.68-0.22-1.15.2-7.22,0.22-8.2,0.23-3.62.04-6.74,0.07-8.65-1.84a6.222,6.222,0,0,1-1.61-4.67,11.8,11.8,0,0,1,3.55-8.45,6.753,6.753,0,0,1,5.41-10.75,6.671,6.671,0,0,1,3.66,1.09,18.473,18.473,0,0,1,30.96,13.42,12.017,12.017,0,0,1-1.15,5.52h8.1A5.49,5.49,0,0,1,1286.53,2780.78Zm-41.57-28.41a4.14,4.14,0,0,0-4.12,4.15,4.205,4.205,0,0,0,.75,2.39,11.717,11.717,0,0,1,6.17-1.76,10.693,10.693,0,0,1,1.27.07,5.364,5.364,0,0,0,.05-0.7A4.14,4.14,0,0,0,1244.96,2752.37Zm2.8,7.39a9.2,9.2,0,0,0-9.17,9.21,3.853,3.853,0,0,0,.84,2.81c1.15,1.15,3.77,1.12,6.8,1.09,0.5,0,1.01-.01,1.53-0.01s1.03,0.01,1.53.01c3.03,0.03,5.65.06,6.8-1.09a3.809,3.809,0,0,0,.84-2.81,9.166,9.166,0,0,0-.97-4.11,1.309,1.309,0,0,1,1.1-1.89,4.142,4.142,0,1,0-4.34-4.14v0.22a1.321,1.321,0,0,1-.53,1.12,1.3,1.3,0,0,1-1.22.17A9.026,9.026,0,0,0,1247.76,2759.76Zm13.38-11.15a15.8,15.8,0,0,0-10.66,4.07,3.2,3.2,0,1,0,6.36-.6,6.763,6.763,0,0,1,2.09,13.18,11.855,11.855,0,0,1,.59,3.71,6.916,6.916,0,0,1-.96,3.87c0.86,0.02,1.73.02,2.58,0.02,4.46,0,8.7-.1,11.62-1.32s4.23-3.46,4.23-7.26A15.779,15.779,0,0,0,1261.14,2748.61Zm-11.39,18.94a1.76,1.76,0,1,1,1.75-1.76A1.761,1.761,0,0,1,1249.75,2767.55Z" transform="translate(-1236 -2746)"/>
</svg>
