<svg xmlns="http://www.w3.org/2000/svg" width="60" height="47" viewBox="0 0 60 47">
  <metadata><?xpacket begin="﻿" id="W5M0MpCehiHzreSzNTczkc9d"?>
<x:xmpmeta xmlns:x="adobe:ns:meta/" x:xmptk="Adobe XMP Core 5.6-c142 79.160924, 2017/07/13-01:06:39        ">
   <rdf:RDF xmlns:rdf="http://www.w3.org/1999/02/22-rdf-syntax-ns#">
      <rdf:Description rdf:about=""/>
   </rdf:RDF>
</x:xmpmeta>
                                                                                                    
                                                                                                    
                                                                                                    
                                                                                                    
                                                                                                    
                                                                                                    
                                                                                                    
                                                                                                    
                                                                                                    
                                                                                                    
                                                                                                    
                                                                                                    
                                                                                                    
                                                                                                    
                                                                                                    
                                                                                                    
                                                                                                    
                                                                                                    
                                                                                                    
                                                                                                    
                           
<?xpacket end="w"?></metadata>
<defs>
    <style>
      .cls-1 {
        fill: #bd4f1a;
        fill-rule: evenodd;
      }
    </style>
  </defs>
  <path id="advantage-3" class="cls-1" d="M629.175,2955.5h-2.809v-2.49h2.809v2.49Zm7.293-2.49h-2.81v2.49h2.81v-2.49Zm-3.619-4.99H630.04v2.48h2.809v-2.48ZM656,2973.07V2982H596v-8.93h2.088l2.807-15.25h2.1c0-.08,0-0.15,0-0.23a78.909,78.909,0,0,1,12.563-12.36h0.219l8.04-9.03a3.491,3.491,0,0,1,5.268,0l19.247,21.62h2.781l2.807,15.25H656Zm-50.5-15.48a4.143,4.143,0,0,0,8.113,1.13l0.261-.9h31.109L627.2,2937.85a0.966,0.966,0,0,0-1.5,0l-8.9,10s-1.049-.13-1.238-0.13a4.124,4.124,0,0,0-4.137,4.1c0,0.11,0,.23.015,0.35l0.126,1.49-1.5-.15a2.954,2.954,0,0,0-.421-0.02A4.124,4.124,0,0,0,605.5,2957.59Zm-4.858,15.48h50.724l-2.35-12.76H615.684a6.673,6.673,0,0,1-12.1,0h-0.594Zm52.853,2.49H598.509v3.95h54.982v-3.95Zm-31.035-5.24,7.088,0" transform="translate(-596 -2935)"/>
</svg>
