<svg xmlns="http://www.w3.org/2000/svg" width="77" height="46" viewBox="0 0 77 46">
  <metadata><?xpacket begin="﻿" id="W5M0MpCehiHzreSzNTczkc9d"?>
<x:xmpmeta xmlns:x="adobe:ns:meta/" x:xmptk="Adobe XMP Core 5.6-c142 79.160924, 2017/07/13-01:06:39        ">
   <rdf:RDF xmlns:rdf="http://www.w3.org/1999/02/22-rdf-syntax-ns#">
      <rdf:Description rdf:about=""/>
   </rdf:RDF>
</x:xmpmeta>
                                                                                                    
                                                                                                    
                                                                                                    
                                                                                                    
                                                                                                    
                                                                                                    
                                                                                                    
                                                                                                    
                                                                                                    
                                                                                                    
                                                                                                    
                                                                                                    
                                                                                                    
                                                                                                    
                                                                                                    
                                                                                                    
                                                                                                    
                                                                                                    
                                                                                                    
                                                                                                    
                           
<?xpacket end="w"?></metadata>
<defs>
    <style>
      .cls-1 {
        fill: #bd4f1a;
        fill-rule: evenodd;
      }
    </style>
  </defs>
  <path id="advantage-6" class="cls-1" d="M1269.79,3209.61h-4.33v-15.07h4.33a1.2,1.2,0,1,0,0-2.39h-5.54a1.2,1.2,0,0,0-1.2,1.19v5.5h-18.99v-0.72l3-.69a1.186,1.186,0,0,0,.9-1.43l-0.97-4.19,5.87-1.34a1.251,1.251,0,0,0,.75-0.54,1.183,1.183,0,0,0,.16-0.9l-2.27-9.79,0.7-.16a1.205,1.205,0,0,0,.91-1.43l-2.49-10.72a1.2,1.2,0,0,0-1.44-.9l-54.25,12.38a1.2,1.2,0,0,0-.75.53,1.144,1.144,0,0,0-.15.9,12.168,12.168,0,0,0,5.55,7.66l-1.84.42a1.2,1.2,0,0,0-.9,1.44l1.36,5.88a1.132,1.132,0,0,0,.54.74,1.191,1.191,0,0,0,.63.19,0.863,0.863,0,0,0,.28-0.04l3.41-.77,1.15,4.98a1.217,1.217,0,0,0,1.18.93,1.241,1.241,0,0,0,.27-0.03l21.84-4.99,0.97,4.2a1.132,1.132,0,0,0,.54.74,1.191,1.191,0,0,0,.63.19,1.176,1.176,0,0,0,.27-0.03l2.1-.48v6.1a1.206,1.206,0,0,0,1.21,1.2h9.64a1.2,1.2,0,0,0,1.2-1.2v-1.43h18.99v5.26a1.2,1.2,0,0,0,1.2,1.2h5.54A1.2,1.2,0,1,0,1269.79,3209.61Zm-73.07-29.15,51.82-11.83,1.95,8.39-42.27,9.65a9.922,9.922,0,0,1-7.46-1.25A9.736,9.736,0,0,1,1196.72,3180.46Zm5.8,12.57-2.24.51-0.82-3.55,2.24-.52,0.53,2.29Zm2.25-.97-0.67-2.9a11.976,11.976,0,0,0,1.9.15,12.491,12.491,0,0,0,2.76-.31l40.39-9.22,2,8.62-44.86,10.24Zm25.08,3.66,14.79-3.38,0.7,3.03-14.79,3.38Zm4.57,10.06v-5.46l7.23-1.65v7.11h-7.23Zm9.64-2.63v-1.91h18.99v1.91h-18.99Z" transform="translate(-1194 -3166)"/>
</svg>
