<svg xmlns="http://www.w3.org/2000/svg" width="50" height="50" viewBox="0 0 50 50">
  <metadata><?xpacket begin="﻿" id="W5M0MpCehiHzreSzNTczkc9d"?>
<x:xmpmeta xmlns:x="adobe:ns:meta/" x:xmptk="Adobe XMP Core 5.6-c142 79.160924, 2017/07/13-01:06:39        ">
   <rdf:RDF xmlns:rdf="http://www.w3.org/1999/02/22-rdf-syntax-ns#">
      <rdf:Description rdf:about=""/>
   </rdf:RDF>
</x:xmpmeta>
                                                                                                    
                                                                                                    
                                                                                                    
                                                                                                    
                                                                                                    
                                                                                                    
                                                                                                    
                                                                                                    
                                                                                                    
                                                                                                    
                                                                                                    
                                                                                                    
                                                                                                    
                                                                                                    
                                                                                                    
                                                                                                    
                                                                                                    
                                                                                                    
                                                                                                    
                                                                                                    
                           
<?xpacket end="w"?></metadata>
<defs>
    <style>
      .cls-1 {
        fill: #bd4f1a;
        fill-rule: evenodd;
      }
    </style>
  </defs>
  <path id="advantage-1" class="cls-1" d="M677.891,2751.76h-0.97v32.83a4.45,4.45,0,0,1-4.477,4.41H635.556a4.45,4.45,0,0,1-4.477-4.41v-32.83h-0.97a1.1,1.1,0,0,1-1.11-1.09v-10.58a1.1,1.1,0,0,1,1.11-1.09h47.782a1.1,1.1,0,0,1,1.109,1.09v10.58A1.1,1.1,0,0,1,677.891,2751.76ZM633.3,2784.59a2.244,2.244,0,0,0,2.258,2.22h36.888a2.244,2.244,0,0,0,2.258-2.22v-3.02H633.3v3.02Zm0-27.85h33.39a1.1,1.1,0,1,1,0,2.19H633.3v20.45h41.4v-20.45h-3.576a1.1,1.1,0,1,1,0-2.19H674.7v-4.98H633.3v4.98Zm43.483-15.55H631.219v8.39h45.562v-8.39Zm-5.9,28.47a1.018,1.018,0,0,1-.332.74,18.5,18.5,0,0,1-12.559,4.72h-0.163a18.636,18.636,0,0,1-12.006-4.33l-5.022,4.09a1.049,1.049,0,0,1-.667.24,1.066,1.066,0,0,1-.805-0.37,1.019,1.019,0,0,1,.137-1.45l4.754-3.87-4.731-3.63a1.013,1.013,0,0,1-.179-1.44,1.056,1.056,0,0,1,1.468-.18l5.1,3.92a18.622,18.622,0,0,1,11.909-4.14h0.13a18.561,18.561,0,0,1,12.651,4.95A1.033,1.033,0,0,1,670.878,2769.66Zm-12.989-3.64h-0.112a16.51,16.51,0,0,0-10.317,3.45,16.806,16.806,0,0,0,10.381,3.6h0.146A5.76,5.76,0,1,0,657.889,2766.02Z" transform="translate(-629 -2739)"/>
</svg>
