<svg xmlns="http://www.w3.org/2000/svg" width="1416.564" height="204.18" viewBox="0 0 1416.564 204.18">
  <metadata><?xpacket begin="﻿" id="W5M0MpCehiHzreSzNTczkc9d"?>
<x:xmpmeta xmlns:x="adobe:ns:meta/" x:xmptk="Adobe XMP Core 5.6-c142 79.160924, 2017/07/13-01:06:39        ">
   <rdf:RDF xmlns:rdf="http://www.w3.org/1999/02/22-rdf-syntax-ns#">
      <rdf:Description rdf:about=""/>
   </rdf:RDF>
</x:xmpmeta>
                                                                                                    
                                                                                                    
                                                                                                    
                                                                                                    
                                                                                                    
                                                                                                    
                                                                                                    
                                                                                                    
                                                                                                    
                                                                                                    
                                                                                                    
                                                                                                    
                                                                                                    
                                                                                                    
                                                                                                    
                                                                                                    
                                                                                                    
                                                                                                    
                                                                                                    
                                                                                                    
                           
<?xpacket end="w"?></metadata>
<defs>
    <style>
      .cls-1 {
        fill: #fff;
        fill-rule: evenodd;
      }
    </style>
  </defs>
  <path id="bg-faq" class="cls-1" d="M1665.63,8376.68c-15.36,24.4-49.95,15.73-61.66,20.68-8.76,3.65-13.01,13.83-25.72,5.84-8.28-5.21-8.19-14.33-4.41-20.33,14.06-22.35,50.93-6.21,62.51-24.61,6.38-10.13,3.24-20.49-8.32-27.77-24.64-15.51-30.61,15.32-49.27,3.57-6.74-4.24-10.04-11.82-5.32-19.32,11.59-18.41,43.42-21.16,66.91-6.37C1664.99,8323.88,1682.29,8350.21,1665.63,8376.68Zm-88.18,64.52c-5.32,8.46-16.81,10.91-25.48,5.46s-11.43-16.87-6.1-25.33,16.82-10.91,25.48-5.46S1582.77,8432.75,1577.45,8441.2ZM699.432,8287.4a5.393,5.393,0,0,1-7.147-3.2c-3.645-9.2,9.46-16.7,6.458-24.28-1.653-4.17-5.493-5.53-10.274-3.67-10.193,3.97-2.172,12.62-9.891,15.62-2.787,1.09-5.822.39-7.046-2.69-3-7.58,3.253-17.77,12.969-21.55,10.192-3.97,22.032-3.31,26.349,7.58,3.982,10.05-6.353,18.53-7.461,23.15C702.547,8281.81,704.689,8285.35,699.432,8287.4ZM315.811,8433.52a11.963,11.963,0,1,1,16.513,2.54A11.861,11.861,0,0,1,315.811,8433.52Zm-2.888-23.61c-5.1,3.64-10.486,1.37-13.129-2.33-9.84-13.77,8.692-31.72.59-43.07-4.46-6.24-11.369-6.9-18.493-1.81-15.191,10.85,1.647,21.88-9.857,30.1-4.153,2.97-9.454,3.09-12.757-1.54-8.106-11.35-2-30.9,12.481-41.24,15.19-10.85,35.016-14.71,46.669,1.6,10.747,15.04-2.805,33.46-2.718,41.61C315.749,8399.31,320.758,8404.31,312.923,8409.91Zm397.858-113.82a6.9,6.9,0,0,1-4.017,8.88,7,7,0,0,1-9.044-3.8,6.9,6.9,0,0,1,4.021-8.88A7,7,0,0,1,710.781,8296.09Z" transform="translate(-255.656 -8245.38)"/>
</svg>
