<svg xmlns="http://www.w3.org/2000/svg" width="59.969" height="57" viewBox="0 0 59.969 57">
  <metadata><?xpacket begin="﻿" id="W5M0MpCehiHzreSzNTczkc9d"?>
<x:xmpmeta xmlns:x="adobe:ns:meta/" x:xmptk="Adobe XMP Core 5.6-c142 79.160924, 2017/07/13-01:06:39        ">
   <rdf:RDF xmlns:rdf="http://www.w3.org/1999/02/22-rdf-syntax-ns#">
      <rdf:Description rdf:about=""/>
   </rdf:RDF>
</x:xmpmeta>
                                                                                                    
                                                                                                    
                                                                                                    
                                                                                                    
                                                                                                    
                                                                                                    
                                                                                                    
                                                                                                    
                                                                                                    
                                                                                                    
                                                                                                    
                                                                                                    
                                                                                                    
                                                                                                    
                                                                                                    
                                                                                                    
                                                                                                    
                                                                                                    
                                                                                                    
                                                                                                    
                           
<?xpacket end="w"?></metadata>
<defs>
    <style>
      .cls-1 {
        fill: #bd4f1a;
        fill-rule: evenodd;
      }
    </style>
  </defs>
  <path id="process-1" class="cls-1" d="M579.254,6457.08a1.146,1.146,0,0,1-1.149,1.15,14.155,14.155,0,0,0-14.163,14.12,1.149,1.149,0,1,1-2.3,0,16.453,16.453,0,0,1,16.461-16.41A1.144,1.144,0,0,1,579.254,6457.08Zm30.626-1.52a30.519,30.519,0,0,0-16.12-14.79,1.146,1.146,0,1,0-.847,2.13,28.235,28.235,0,0,1,14.909,13.68,1.157,1.157,0,0,0,1.03.64,1.054,1.054,0,0,0,.51-0.13A1.137,1.137,0,0,0,609.88,6455.56Zm-8.352,1.18a1.143,1.143,0,0,0,.964.52,1.12,1.12,0,0,0,.627-0.19,1.136,1.136,0,0,0,.334-1.58,25,25,0,0,0-9.605-8.61,1.146,1.146,0,1,0-1.044,2.04A22.822,22.822,0,0,1,601.528,6456.74Zm6.62,30.15a4.117,4.117,0,0,1-4.118,4.11H554.117a4.105,4.105,0,1,1,0-8.21h12.634v-2.45H555.325a1.153,1.153,0,0,1-1.149-1.15v-5.92a24.925,24.925,0,0,1,23.749-24.79v-6.27h-0.336a4.105,4.105,0,1,1,0-8.21h2.969a4.105,4.105,0,1,1,0,8.21h-0.335v6.27a24.925,24.925,0,0,1,23.749,24.79v5.92a1.153,1.153,0,0,1-1.15,1.15H591.4v2.45H604.03A4.115,4.115,0,0,1,608.148,6486.89Zm-29.074-46.97h1.484a1.815,1.815,0,1,0,0-3.63h-2.969a1.815,1.815,0,1,0,0,3.63h1.485Zm11.173,38.13h11.426v-4.78a22.6,22.6,0,0,0-45.2,0v4.78h33.773Zm-21.2,2.29v2.45H589.1v-2.45H569.05Zm36.8,6.55a1.815,1.815,0,0,0-1.819-1.81H554.117a1.815,1.815,0,1,0,0,3.63H604.03A1.824,1.824,0,0,0,605.849,6486.89Z" transform="translate(-550 -6434)"/>
</svg>
