<svg xmlns="http://www.w3.org/2000/svg" width="72" height="72" viewBox="0 0 72 72">
  <metadata><?xpacket begin="﻿" id="W5M0MpCehiHzreSzNTczkc9d"?>
<x:xmpmeta xmlns:x="adobe:ns:meta/" x:xmptk="Adobe XMP Core 5.6-c142 79.160924, 2017/07/13-01:06:39        ">
   <rdf:RDF xmlns:rdf="http://www.w3.org/1999/02/22-rdf-syntax-ns#">
      <rdf:Description rdf:about=""/>
   </rdf:RDF>
</x:xmpmeta>
                                                                                                    
                                                                                                    
                                                                                                    
                                                                                                    
                                                                                                    
                                                                                                    
                                                                                                    
                                                                                                    
                                                                                                    
                                                                                                    
                                                                                                    
                                                                                                    
                                                                                                    
                                                                                                    
                                                                                                    
                                                                                                    
                                                                                                    
                                                                                                    
                                                                                                    
                                                                                                    
                           
<?xpacket end="w"?></metadata>
<defs>
    <style>
      .cls-1 {
        fill: #bd4f1a;
        fill-rule: evenodd;
      }
    </style>
  </defs>
  <path id="process-3" class="cls-1" d="M1383.68,6434.68l-36.13,36.14a1.166,1.166,0,0,1-.38.24l-8.01,3.24a1.044,1.044,0,0,1-.42.08,1.161,1.161,0,0,1-.8-0.32,1.124,1.124,0,0,1-.24-1.22l3.23-8.01a1.391,1.391,0,0,1,.25-0.38l36.14-36.13A4.5,4.5,0,1,1,1383.68,6434.68Zm-42.9,36.54,4.17-1.68-2.49-2.49Zm36.21-39.39-33.29,33.28,3.19,3.18,33.28-33.28Zm5.1-1.92a2.245,2.245,0,0,0-3.18,0l-0.33.33,3.18,3.18,0.33-.33A2.245,2.245,0,0,0,1382.09,6429.91ZM1356.87,6490h-33.75a1.125,1.125,0,0,1,0-2.25h33.75A1.125,1.125,0,1,1,1356.87,6490Zm0-5.63h-33.75a1.125,1.125,0,0,1,0-2.25h33.75A1.125,1.125,0,1,1,1356.87,6484.37Zm-33.75-13.5h11.25a1.125,1.125,0,1,1,0,2.25h-11.25A1.125,1.125,0,0,1,1323.12,6470.87Zm13.5-3.37h-13.5a1.125,1.125,0,0,1,0-2.25h13.5A1.125,1.125,0,1,1,1336.62,6467.5ZM1322,6455.12a1.118,1.118,0,0,1,1.12-1.12h22.5a1.125,1.125,0,1,1,0,2.25h-22.5A1.127,1.127,0,0,1,1322,6455.12Zm18,6.75h-16.88a1.125,1.125,0,0,1,0-2.25H1340A1.125,1.125,0,0,1,1340,6461.87Zm16.87,16.88h-33.75a1.125,1.125,0,0,1,0-2.25h33.75A1.125,1.125,0,1,1,1356.87,6478.75Zm-0.79-11.58a1.123,1.123,0,1,1,.79.33A1.136,1.136,0,0,1,1356.08,6467.17Zm0.79,5.95h-5.62a1.125,1.125,0,1,1,0-2.25h5.62A1.125,1.125,0,1,1,1356.87,6473.12Zm-2.25-25.87h-36a3.372,3.372,0,0,0-3.37,3.37v42.75a3.38,3.38,0,0,0,3.37,3.38h42.75a3.382,3.382,0,0,0,3.38-3.38v-36a1.125,1.125,0,0,1,2.25,0v36a5.629,5.629,0,0,1-5.63,5.63h-42.75a5.627,5.627,0,0,1-5.62-5.63v-42.75a5.625,5.625,0,0,1,5.62-5.62h36A1.125,1.125,0,1,1,1354.62,6447.25Z" transform="translate(-1313 -6427)"/>
</svg>
