<svg xmlns="http://www.w3.org/2000/svg" width="67" height="68" viewBox="0 0 67 68">
  <metadata><?xpacket begin="﻿" id="W5M0MpCehiHzreSzNTczkc9d"?>
<x:xmpmeta xmlns:x="adobe:ns:meta/" x:xmptk="Adobe XMP Core 5.6-c142 79.160924, 2017/07/13-01:06:39        ">
   <rdf:RDF xmlns:rdf="http://www.w3.org/1999/02/22-rdf-syntax-ns#">
      <rdf:Description rdf:about=""/>
   </rdf:RDF>
</x:xmpmeta>
                                                                                                    
                                                                                                    
                                                                                                    
                                                                                                    
                                                                                                    
                                                                                                    
                                                                                                    
                                                                                                    
                                                                                                    
                                                                                                    
                                                                                                    
                                                                                                    
                                                                                                    
                                                                                                    
                                                                                                    
                                                                                                    
                                                                                                    
                                                                                                    
                                                                                                    
                                                                                                    
                           
<?xpacket end="w"?></metadata>
<defs>
    <style>
      .cls-1 {
        fill: #bd4f1a;
        fill-rule: evenodd;
      }
    </style>
  </defs>
  <path id="process-2" class="cls-1" d="M993.748,6391.12a1.136,1.136,0,0,1-1.091.82,1.184,1.184,0,0,1-.319-0.05,1.124,1.124,0,0,1-.772-1.4,4,4,0,0,0,.162-1.12,3.762,3.762,0,0,0-.048-0.63,1.136,1.136,0,0,1,2.244-.36,6.087,6.087,0,0,1,.076.99A6.229,6.229,0,0,1,993.748,6391.12Zm-11.956-15.35-7.344-8.25a12.443,12.443,0,0,1,0-16.12,9.63,9.63,0,0,1,14.687,0,12.443,12.443,0,0,1,0,16.12Zm5.644-22.86a7.354,7.354,0,0,0-11.289,0,10.109,10.109,0,0,0,0,13.1l5.645,6.35,5.644-6.35A10.107,10.107,0,0,0,987.436,6352.91ZM982.072,6365a6.235,6.235,0,1,1,6.248-6.23A6.25,6.25,0,0,1,982.072,6365Zm0-10.2a3.965,3.965,0,1,0,3.976,3.97A3.977,3.977,0,0,0,982.072,6354.8Zm-12.09,30.6H967.71a1.135,1.135,0,1,1,0-2.27h2.272A1.135,1.135,0,1,1,969.982,6385.4Zm-0.975-10.2h-2.272a1.135,1.135,0,1,1,0-2.27h2.272A1.135,1.135,0,1,1,969.007,6375.2Zm-5.609,23.62a1.141,1.141,0,0,1-1.116.92,1.592,1.592,0,0,1-.215-0.02,1.14,1.14,0,0,1-.9-1.33,6.228,6.228,0,0,1,1.106-2.52,1.142,1.142,0,0,1,1.588-.24,1.128,1.128,0,0,1,.242,1.58A3.965,3.965,0,0,0,963.4,6398.82Zm-0.233-13.42h-0.406a6.256,6.256,0,0,1-2.23-.41,1.135,1.135,0,0,1,.81-2.12,4.026,4.026,0,0,0,1.422.26h0.4A1.135,1.135,0,1,1,963.165,6385.4Zm-0.849-10.18a4.031,4.031,0,0,0-1.652.57,1.1,1.1,0,0,1-.6.17,1.144,1.144,0,0,1-.966-0.53,1.129,1.129,0,0,1,.362-1.56,6.067,6.067,0,0,1,2.606-.9A1.132,1.132,0,1,1,962.316,6375.22Zm-3.335,5.18a1.13,1.13,0,0,1-.725,1.43,1.1,1.1,0,0,1-.356.06,1.134,1.134,0,0,1-1.079-.78,6.218,6.218,0,0,1-.31-1.95,6.325,6.325,0,0,1,.05-0.78,1.136,1.136,0,1,1,2.254.28,4.364,4.364,0,0,0-.032.51A3.883,3.883,0,0,0,958.981,6380.4Zm-5.229,35.6H951.48a1.135,1.135,0,1,1,0-2.27h2.272A1.135,1.135,0,1,1,953.752,6416Zm-13.145-2.82-9.687-10.92a16.558,16.558,0,0,1,0-21.42,12.659,12.659,0,0,1,19.375,0,16.56,16.56,0,0,1,0,21.42Zm7.985-30.84a10.4,10.4,0,0,0-15.971,0,14.228,14.228,0,0,0,0,18.41l7.987,9,7.985-9A14.23,14.23,0,0,0,948.592,6382.34Zm-7.985,14.39a6.8,6.8,0,1,1,6.816-6.8A6.815,6.815,0,0,1,940.607,6396.73Zm0-11.33a4.53,4.53,0,1,0,4.544,4.53A4.54,4.54,0,0,0,940.607,6385.4Zm4.056,28.33h2.272a1.135,1.135,0,1,1,0,2.27h-2.272A1.135,1.135,0,1,1,944.663,6413.73Zm13.633,0h2.272a1.135,1.135,0,1,1,0,2.27H958.3A1.135,1.135,0,1,1,958.3,6413.73Zm5.96-11.62a4,4,0,0,0,1.395,1.06,1.136,1.136,0,0,1-.473,2.17,1.314,1.314,0,0,1-.472-0.1,6.374,6.374,0,0,1-2.189-1.67A1.135,1.135,0,0,1,964.256,6402.11Zm0.856,11.62h2.272a1.135,1.135,0,1,1,0,2.27h-2.272A1.135,1.135,0,1,1,965.112,6413.73Zm1.994-18.13h-0.048a1.13,1.13,0,0,1-.046-2.26,2.83,2.83,0,0,1,.291-0.01h2.028a1.135,1.135,0,1,1,0,2.27h-2.225Zm2.551,7.93h2.272a1.135,1.135,0,1,1,0,2.27h-2.272A1.135,1.135,0,1,1,969.657,6403.53Zm2.271,10.2H974.2a1.135,1.135,0,1,1,0,2.27h-2.272A1.135,1.135,0,1,1,971.928,6413.73Zm6.006-29.47a1.138,1.138,0,0,1-1.136,1.14h-2.272a1.135,1.135,0,1,1,0-2.27H976.8A1.135,1.135,0,0,1,977.934,6384.26Zm-4.059,9.07h2.272a1.135,1.135,0,1,1,0,2.27h-2.272A1.135,1.135,0,1,1,973.875,6393.33Zm-0.324-20.4h2.272a1.135,1.135,0,1,1,0,2.27h-2.272A1.135,1.135,0,1,1,973.551,6372.93Zm2.922,30.6h2.272a1.135,1.135,0,1,1,0,2.27h-2.272A1.135,1.135,0,1,1,976.473,6403.53Zm2.27,10.2h2.193a1.169,1.169,0,0,1,1.175,1.13,1.1,1.1,0,0,1-1.1,1.14v-1.14l-0.033,1.14h-2.239A1.135,1.135,0,1,1,978.743,6413.73Zm4.22-20.4a1.135,1.135,0,1,1,0,2.27h-2.272a1.135,1.135,0,1,1,0-2.27h2.272Zm-1.621-10.2h2.272a1.135,1.135,0,1,1,0,2.27h-2.272A1.135,1.135,0,1,1,981.342,6383.13Zm0.847,21.56a1.135,1.135,0,0,1,1.523-.51,6.356,6.356,0,0,1,2.135,1.73,1.129,1.129,0,0,1-.191,1.59,1.1,1.1,0,0,1-.7.25,1.127,1.127,0,0,1-.9-0.44,4.011,4.011,0,0,0-1.36-1.1A1.133,1.133,0,0,1,982.189,6404.69Zm2.627,5.95a1.136,1.136,0,1,1,2.217.5,6.273,6.273,0,0,1-1.184,2.48,1.144,1.144,0,0,1-1.6.19,1.13,1.13,0,0,1-.191-1.59A3.931,3.931,0,0,0,984.816,6410.64Zm1.555-16.18a1.135,1.135,0,0,1,1.136-1.13h0.245a3.851,3.851,0,0,0,1.536-.31,1.138,1.138,0,0,1,1.486.61,1.126,1.126,0,0,1-.608,1.48,6.059,6.059,0,0,1-2.414.49h-0.245A1.137,1.137,0,0,1,986.371,6394.46Zm3.369-8.53a3.943,3.943,0,0,0-1.67-.52,1.133,1.133,0,1,1,.177-2.26,6.128,6.128,0,0,1,2.632.82,1.13,1.13,0,0,1-.57,2.11A1.17,1.17,0,0,1,989.74,6385.93Z" transform="translate(-927 -6348)"/>
</svg>
