<svg xmlns="http://www.w3.org/2000/svg" width="76" height="55" viewBox="0 0 76 55">
  <metadata><?xpacket begin="﻿" id="W5M0MpCehiHzreSzNTczkc9d"?>
<x:xmpmeta xmlns:x="adobe:ns:meta/" x:xmptk="Adobe XMP Core 5.6-c142 79.160924, 2017/07/13-01:06:39        ">
   <rdf:RDF xmlns:rdf="http://www.w3.org/1999/02/22-rdf-syntax-ns#">
      <rdf:Description rdf:about=""/>
   </rdf:RDF>
</x:xmpmeta>
                                                                                                    
                                                                                                    
                                                                                                    
                                                                                                    
                                                                                                    
                                                                                                    
                                                                                                    
                                                                                                    
                                                                                                    
                                                                                                    
                                                                                                    
                                                                                                    
                                                                                                    
                                                                                                    
                                                                                                    
                                                                                                    
                                                                                                    
                                                                                                    
                                                                                                    
                                                                                                    
                           
<?xpacket end="w"?></metadata>
<defs>
    <style>
      .cls-1 {
        fill: #fff;
        fill-rule: evenodd;
      }
    </style>
  </defs>
  <path id="reason-1" class="cls-1" d="M660.729,2205.29a2.989,2.989,0,0,0-1.935.65,5.709,5.709,0,0,1-6.627,0,3.2,3.2,0,0,0-3.868,0,5.709,5.709,0,0,1-6.627,0,3.2,3.2,0,0,0-3.868,0,5.707,5.707,0,0,1-6.626,0,3.2,3.2,0,0,0-3.867,0,5.707,5.707,0,0,1-6.626,0,3.2,3.2,0,0,0-3.868,0,5.707,5.707,0,0,1-6.626,0,3.2,3.2,0,0,0-3.867,0,5.707,5.707,0,0,1-6.626,0,3.2,3.2,0,0,0-3.868,0,5.706,5.706,0,0,1-6.625,0,2.986,2.986,0,0,0-1.934-.65,1.28,1.28,0,0,1,0-2.56,5.442,5.442,0,0,1,3.313,1.06,3.2,3.2,0,0,0,3.867,0,5.707,5.707,0,0,1,6.626,0,2.994,2.994,0,0,0,1.749.64,27.191,27.191,0,0,1,13.029-8.86,44.255,44.255,0,0,0-3.966-22.13,2.445,2.445,0,0,1-.379.34,1.275,1.275,0,0,1-.728.23,0.88,0.88,0,0,1-.228-0.02,10.009,10.009,0,0,1-5.715-3.72l-5.051,7.4a1.29,1.29,0,0,1-.887.55c-0.053,0-.107.01-0.16,0.01a1.236,1.236,0,0,1-.833-0.32c-2.456-2.15-3.881-7.31-3.313-12,0.42-3.48,1.875-6.03,4.1-7.17a8.345,8.345,0,0,1,1.311-.54,9.667,9.667,0,0,1,12.379-5.3,9.173,9.173,0,0,1,1.3-.57c2.361-.82,5.19-0.1,7.963,2.01,3.748,2.85,6.444,7.47,6.272,10.74a1.272,1.272,0,0,1-1.269,1.21,0.752,0.752,0,0,1-.21-0.02l-12.294-2.07c0,0.27,0,.53-0.006.79a47.577,47.577,0,0,1,11.113,29.37,27.127,27.127,0,0,1,19.92,10.07,2.993,2.993,0,0,0,1.747-.64,5.707,5.707,0,0,1,6.626,0,3.2,3.2,0,0,0,3.869,0,5.443,5.443,0,0,1,3.314-1.06A1.28,1.28,0,0,1,660.729,2205.29Zm-50.409-34c0.487-.8,1.353-2.89,1.28-7.52l-2.09-.35-3.157,4.63A8.665,8.665,0,0,0,610.32,2171.29Zm-10.47-10.27c-1.952,1-2.55,3.69-2.732,5.19a14.7,14.7,0,0,0,1.525,8.62l8.586-12.59a10.509,10.509,0,0,0-1.851-1.15,6.956,6.956,0,0,0-2.938-.71A5.554,5.554,0,0,0,599.85,2161.02Zm9.071-6.2a7.143,7.143,0,0,0-5.825,3.02,9.868,9.868,0,0,1,3.448.98,12.3,12.3,0,0,1,1.35.76,12.626,12.626,0,0,1,.393-1.51,9.881,9.881,0,0,1,1.7-3.17A7.522,7.522,0,0,0,608.921,2154.82Zm16.285,8.65a14.581,14.581,0,0,0-5.091-7.09c-1.2-.92-3.533-2.34-5.608-1.63-3.265,1.13-4.062,4.48-4.255,6.2Zm-11.387,5.21a14.87,14.87,0,0,1-.473,2.01,45.54,45.54,0,0,1,5.105,24.2,28.623,28.623,0,0,1,4.259-.53A45.062,45.062,0,0,0,613.819,2168.68ZM624,2196.89a24.553,24.553,0,0,0-15.959,5.85,1.548,1.548,0,0,1,.216-0.01,5.437,5.437,0,0,1,3.313,1.06,3.2,3.2,0,0,0,3.868,0,5.707,5.707,0,0,1,6.626,0,3.2,3.2,0,0,0,3.867,0,5.707,5.707,0,0,1,6.626,0,3.2,3.2,0,0,0,3.868,0,5.442,5.442,0,0,1,3.313-1.06,1.591,1.591,0,0,1,.22.01A24.549,24.549,0,0,0,624,2196.89Zm29.825-15.71h-2.034a0.087,0.087,0,0,0-.084.09,2.634,2.634,0,0,1-2.627,2.64H636.2a3.658,3.658,0,0,1-3.641-3.62,8.765,8.765,0,1,1,13.939-7.05c0,0.2-.008.4-0.021,0.6h7.347A3.67,3.67,0,0,1,653.825,2181.18Zm-16.053-14.17a6.244,6.244,0,0,0-4.253,10.76,3.63,3.63,0,0,1,2.682-1.2h2.033a0.079,0.079,0,0,0,.085-0.08,2.642,2.642,0,0,1,2.627-2.65h2.98c0.019-.2.031-0.4,0.031-0.6A6.218,6.218,0,0,0,637.772,2167.01Zm16.053,9.39H640.946a0.087,0.087,0,0,0-.085.09,2.633,2.633,0,0,1-2.627,2.64H636.2a1.11,1.11,0,0,0,0,2.22H649.08a0.079,0.079,0,0,0,.085-0.08,2.642,2.642,0,0,1,2.626-2.65h2.034A1.11,1.11,0,0,0,653.825,2176.4Z" transform="translate(-586 -2152)"/>
</svg>
