<svg xmlns="http://www.w3.org/2000/svg" width="59" height="48" viewBox="0 0 59 48">
  <metadata><?xpacket begin="﻿" id="W5M0MpCehiHzreSzNTczkc9d"?>
<x:xmpmeta xmlns:x="adobe:ns:meta/" x:xmptk="Adobe XMP Core 5.6-c142 79.160924, 2017/07/13-01:06:39        ">
   <rdf:RDF xmlns:rdf="http://www.w3.org/1999/02/22-rdf-syntax-ns#">
      <rdf:Description rdf:about=""/>
   </rdf:RDF>
</x:xmpmeta>
                                                                                                    
                                                                                                    
                                                                                                    
                                                                                                    
                                                                                                    
                                                                                                    
                                                                                                    
                                                                                                    
                                                                                                    
                                                                                                    
                                                                                                    
                                                                                                    
                                                                                                    
                                                                                                    
                                                                                                    
                                                                                                    
                                                                                                    
                                                                                                    
                                                                                                    
                                                                                                    
                           
<?xpacket end="w"?></metadata>
<defs>
    <style>
      .cls-1 {
        fill: #fff;
        fill-rule: evenodd;
      }
    </style>
  </defs>
  <path id="reason-2" class="cls-1" d="M854.5,2265.98H842.809v-5.15a1.847,1.847,0,0,0-1.86-1.83h-26.9a1.847,1.847,0,0,0-1.86,1.83v5.15H800.5a2.492,2.492,0,0,0-2.5,2.47v32.19a2.492,2.492,0,0,0,2.5,2.47h3.568a1.105,1.105,0,1,0,0-2.21H800.5a0.268,0.268,0,0,1-.268-0.26v-21.83a101.942,101.942,0,0,0,20.579,3.16,3.256,3.256,0,0,0,2.019,2.27v3.13a1.114,1.114,0,0,0,1.118,1.1h7.1a1.114,1.114,0,0,0,1.118-1.1v-3.13a3.255,3.255,0,0,0,2.02-2.27,101.9,101.9,0,0,0,20.578-3.16v21.83a0.268,0.268,0,0,1-.267.26H831.973a1.105,1.105,0,1,0,0,2.21H854.5a2.492,2.492,0,0,0,2.5-2.47v-32.19A2.492,2.492,0,0,0,854.5,2265.98Zm-33.412,13.8a97.972,97.972,0,0,1-20.848-3.26v-8.07a0.277,0.277,0,0,1,.268-0.27h22.334l0.03,10.04A3.254,3.254,0,0,0,821.084,2279.78Zm8.846,6.49h-4.86v-1.82h4.86v1.82h0Zm1.114-4.03h-7.089a1.009,1.009,0,0,1-.991-1,0.979,0.979,0,0,1,.01-0.14c0-.01,0-0.02,0-0.03a1.014,1.014,0,0,1,1.009-.84h7.051a1.018,1.018,0,0,1,.983.84c0,0.01,0,.02.006,0.04A1,1,0,0,1,831.044,2282.24Zm-5.971-14.06h4.857v9.85H825.1Zm5.975-2.2H814.427v-4.78h26.146v4.78h-9.525Zm23.716,10.54a97.962,97.962,0,0,1-20.848,3.26,3.278,3.278,0,0,0-1.751-1.55v-10.05H854.5a0.277,0.277,0,0,1,.268.27v8.07h0Zm-28.393,20.7h-6.313a3.073,3.073,0,0,0-.964.15,4.658,4.658,0,0,1,.157-4.74,3.029,3.029,0,0,0-3.044-3H809.9a3.028,3.028,0,0,0-3.044,3,2.922,2.922,0,0,0,.688,1.89,2.968,2.968,0,0,0,0,3.8,2.922,2.922,0,0,0-.688,1.89,2.969,2.969,0,0,0,.688,1.9,2.922,2.922,0,0,0-.688,1.89,3.022,3.022,0,0,0,3.044,3h6.312a3.066,3.066,0,0,1,3.851,0h6.313a3.021,3.021,0,0,0,3.043-3,2.922,2.922,0,0,0-.688-1.89,2.969,2.969,0,0,0,.688-1.9A3.019,3.019,0,0,0,826.371,2297.22Zm-10.164,7.58H809.9a0.805,0.805,0,0,1-.808-0.8,0.8,0.8,0,0,1,.808-0.79h6.312A0.8,0.8,0,1,1,816.207,2304.8Zm0-3.79H809.9a0.805,0.805,0,0,1-.808-0.8,0.8,0.8,0,0,1,.808-0.79h6.312a0.8,0.8,0,0,1,.808.79A0.806,0.806,0,0,1,816.207,2301.01Zm0-3.79H809.9a0.8,0.8,0,1,1,0-1.6h6.312A0.8,0.8,0,1,1,816.207,2297.22Zm0-3.8H809.9a0.8,0.8,0,0,1-.808-0.79,0.805,0.805,0,0,1,.808-0.8h6.312a0.806,0.806,0,0,1,.808.8A0.8,0.8,0,0,1,816.207,2293.42Zm10.164,11.38h-6.313a0.805,0.805,0,0,1-.807-0.8,0.8,0.8,0,0,1,.807-0.79h6.313A0.8,0.8,0,1,1,826.371,2304.8Zm0-3.79h-6.313a0.805,0.805,0,0,1-.807-0.8,0.8,0.8,0,0,1,.807-0.79h6.313a0.8,0.8,0,0,1,.808.79A0.806,0.806,0,0,1,826.371,2301.01Z" transform="translate(-798 -2259)"/>
</svg>
