<svg xmlns="http://www.w3.org/2000/svg" width="58" height="53.03" viewBox="0 0 58 53.03">
  <metadata><?xpacket begin="﻿" id="W5M0MpCehiHzreSzNTczkc9d"?>
<x:xmpmeta xmlns:x="adobe:ns:meta/" x:xmptk="Adobe XMP Core 5.6-c142 79.160924, 2017/07/13-01:06:39        ">
   <rdf:RDF xmlns:rdf="http://www.w3.org/1999/02/22-rdf-syntax-ns#">
      <rdf:Description rdf:about=""/>
   </rdf:RDF>
</x:xmpmeta>
                                                                                                    
                                                                                                    
                                                                                                    
                                                                                                    
                                                                                                    
                                                                                                    
                                                                                                    
                                                                                                    
                                                                                                    
                                                                                                    
                                                                                                    
                                                                                                    
                                                                                                    
                                                                                                    
                                                                                                    
                                                                                                    
                                                                                                    
                                                                                                    
                                                                                                    
                                                                                                    
                           
<?xpacket end="w"?></metadata>
<defs>
    <style>
      .cls-1 {
        fill: #fff;
        fill-rule: evenodd;
      }
    </style>
  </defs>
  <path id="reason-4" class="cls-1" d="M1274.71,2179.66a1.218,1.218,0,0,1-1.22,1.22h-10.75a1.22,1.22,0,1,1,0-2.44h10.75A1.218,1.218,0,0,1,1274.71,2179.66Zm-3.78,3.9h-5.64a1.215,1.215,0,1,0,0,2.43h5.64A1.215,1.215,0,1,0,1270.93,2183.56Zm39.68,15.96a1.217,1.217,0,0,1,.06,1.72c-2.04,2.2-5.4,2-9.65,1.74-5.17-.31-11.61-0.71-18.44,2.96a1.2,1.2,0,0,1-1.16,0,26,26,0,0,0-8.15-2.75v5.59a1.219,1.219,0,0,1-1.82,1.06l-3.34-1.83-3.33,1.83a1.174,1.174,0,0,1-.6.16,1.258,1.258,0,0,1-.62-0.17,1.226,1.226,0,0,1-.6-1.05v-5.8c-4.24.26-7.59,0.46-9.63-1.74a1.217,1.217,0,0,1,.06-1.72,1.232,1.232,0,0,1,1.74.07c1.26,1.35,4.1,1.18,7.7.96,5.06-.31,11.94-0.73,19.17,2.94,7.23-3.67,14.11-3.25,19.17-2.94,3.6,0.22,6.44.39,7.7-.96A1.232,1.232,0,0,1,1310.61,2199.52Zm-39.79,3.38a42.776,42.776,0,0,0-5.41-.05v3.86l2.11-1.16a1.228,1.228,0,0,1,1.19,0l2.11,1.16v-3.81h0Zm18.46-28.36a1.221,1.221,0,0,0,1.23,1.22h10.75a1.22,1.22,0,1,0,0-2.44h-10.75A1.227,1.227,0,0,0,1289.28,2174.54Zm21.72-16.32v37.04a1.226,1.226,0,0,1-.33.83c-2.04,2.2-5.4,1.99-9.65,1.74-5.17-.32-11.61-0.71-18.43,2.96a0.052,0.052,0,0,0-.04.02,1.343,1.343,0,0,1-.55.13,1.5,1.5,0,0,1-.6-0.16c-6.84-3.61-13.25-3.27-18.42-2.95-4.25.25-7.61,0.46-9.65-1.74a1.226,1.226,0,0,1-.33-0.83v-37.04a1.223,1.223,0,0,1,1.81-1.07c6.83,3.67,13.27,3.27,18.44,2.96,3.67-.22,6.68-0.4,8.75.97,2.07-1.37,5.08-1.19,8.75-.97,5.17,0.32,11.61.71,18.44-2.96A1.223,1.223,0,0,1,1311,2158.22Zm-30.23,4.99c-1.38-1.03-4.05-.87-7.37-0.67-4.77.29-11.17,0.68-17.94-2.36v34.55c1.38,1.03,4.05.86,7.37,0.66,1.51-.09,3.18-0.19,4.97-0.19a30.945,30.945,0,0,1,12.97,2.55v-34.54Zm27.77-3.03c-6.77,3.04-13.17,2.65-17.94,2.36-3.32-.2-5.99-0.36-7.37.67v34.54c6.77-3.03,13.17-2.65,17.94-2.36,3.32,0.2,5.99.37,7.37-.66v-34.55h0Zm-7.28,18.26h-10.75a1.22,1.22,0,1,0,0,2.44h10.75A1.22,1.22,0,1,0,1301.26,2178.44Zm-27.77-5.12h-10.75a1.22,1.22,0,1,0,0,2.44h10.75A1.22,1.22,0,1,0,1273.49,2173.32Zm25.22,10.24h-5.64a1.215,1.215,0,1,0,0,2.43h5.64A1.215,1.215,0,1,0,1298.71,2183.56Z" transform="translate(-1253 -2157)"/>
</svg>
