<svg xmlns="http://www.w3.org/2000/svg" width="69.97" height="41" viewBox="0 0 69.97 41">
  <metadata><?xpacket begin="﻿" id="W5M0MpCehiHzreSzNTczkc9d"?>
<x:xmpmeta xmlns:x="adobe:ns:meta/" x:xmptk="Adobe XMP Core 5.6-c142 79.160924, 2017/07/13-01:06:39        ">
   <rdf:RDF xmlns:rdf="http://www.w3.org/1999/02/22-rdf-syntax-ns#">
      <rdf:Description rdf:about=""/>
   </rdf:RDF>
</x:xmpmeta>
                                                                                                    
                                                                                                    
                                                                                                    
                                                                                                    
                                                                                                    
                                                                                                    
                                                                                                    
                                                                                                    
                                                                                                    
                                                                                                    
                                                                                                    
                                                                                                    
                                                                                                    
                                                                                                    
                                                                                                    
                                                                                                    
                                                                                                    
                                                                                                    
                                                                                                    
                                                                                                    
                           
<?xpacket end="w"?></metadata>
<defs>
    <style>
      .cls-1 {
        fill: #fff;
        fill-rule: evenodd;
      }
    </style>
  </defs>
  <path id="reason-3" class="cls-1" d="M1125.87,2297.95h-1.29v3.78h1.29a1.135,1.135,0,0,1,0,2.27h-67.71a1.135,1.135,0,1,1,0-2.27h1.28v-16.51l-0.65.43a1.156,1.156,0,0,1-.63.19,1.127,1.127,0,0,1-.63-2.07l14.51-9.69a1.135,1.135,0,0,1,1.25,0l14.51,9.69a1.129,1.129,0,1,1-1.25,1.88l-0.66-.43v10.46h2.57v-1.29a1.135,1.135,0,0,1,2.27,0v1.29h2.57v-1.29a1.13,1.13,0,0,1,2.26,0v1.29h2.57v-2.71a4.764,4.764,0,0,1-3.62-4.63,25.307,25.307,0,0,1,1.11-5.92c1.01-3.34,2.17-4.9,3.65-4.9s2.64,1.56,3.65,4.9a25.849,25.849,0,0,1,1.11,5.92,4.773,4.773,0,0,1-3.63,4.63v2.71h2.57v-1.29a1.135,1.135,0,0,1,2.27,0v1.29h2.57v-1.29a1.13,1.13,0,0,1,2.26,0v1.29h2.57v-3.86a8.411,8.411,0,0,1-7.25-8.32,49.809,49.809,0,0,1,2.17-11.52c1.83-6.04,3.86-8.98,6.22-8.98s4.38,2.94,6.21,8.98a49.809,49.809,0,0,1,2.17,11.52,8.411,8.411,0,0,1-7.25,8.32v3.86h2.57v-1.29a1.135,1.135,0,0,1,2.27,0v1.29h2.56v-1.29a1.135,1.135,0,0,1,2.27,0v1.29h1.29A1.135,1.135,0,0,1,1125.87,2297.95Zm-42.25-14.25-10.95-7.31-10.96,7.31v18.03h21.91V2283.7Zm4.84,14.25h-2.57v3.78h2.57v-3.78Zm4.84,0h-2.57v3.78h2.57v-3.78Zm2.26,0v3.78h2.57v-3.78h-2.57Zm6.2-9.61a23.125,23.125,0,0,0-.89-4.84,9.174,9.174,0,0,0-1.6-3.64c-0.3.28-.93,1.25-1.61,3.64a23.125,23.125,0,0,0-.89,4.84,2.5,2.5,0,0,0,1.36,2.22v-1.01a1.135,1.135,0,0,1,2.27,0v1.01A2.482,2.482,0,0,0,1101.76,2288.34Zm1.21,9.61h-2.57v3.78h2.57v-3.78Zm4.84,0h-2.57v3.78h2.57v-3.78Zm2.26,0v3.78h2.57v-3.78h-2.57Zm9.83-14.45a48.37,48.37,0,0,0-2.08-10.86,27.107,27.107,0,0,0-2.2-5.48c-0.81-1.39-1.48-1.89-1.84-1.89s-1.04.5-1.85,1.89a27.107,27.107,0,0,0-2.2,5.48,48.37,48.37,0,0,0-2.08,10.86,6.139,6.139,0,0,0,4.99,6.02v-5.55l-2.08-2.09a1.131,1.131,0,1,1,1.6-1.6l0.48,0.48v-2.1a1.135,1.135,0,1,1,2.27,0v4.84h0v0.89l0.48-.48a1.135,1.135,0,1,1,1.61,1.6l-2.09,2.09v1.92A6.139,6.139,0,0,0,1119.9,2283.5Zm-2.42,14.45h-2.57v3.78h2.57v-3.78Zm4.83,0h-2.56v3.78h2.56v-3.78Zm-56.9-10.74h4.84a1.129,1.129,0,0,1,1.13,1.13v9.68a1.137,1.137,0,0,1-1.13,1.14h-4.84a1.137,1.137,0,0,1-1.13-1.14v-9.68A1.129,1.129,0,0,1,1065.41,2287.21Zm1.13,9.68h2.57v-3.78h-2.57v3.78Zm0-6.05h2.57v-1.36h-2.57v1.36Zm8.54-3.63h4.84a1.123,1.123,0,0,1,1.13,1.13v9.68a1.131,1.131,0,0,1-1.13,1.14h-4.84a1.137,1.137,0,0,1-1.13-1.14v-9.68A1.129,1.129,0,0,1,1075.08,2287.21Zm1.14,9.68h2.57v-3.78h-2.57v3.78Zm0-6.05h2.57v-1.36h-2.57v1.36Z" transform="translate(-1057.03 -2263)"/>
</svg>
