<svg xmlns="http://www.w3.org/2000/svg" width="44" height="29" viewBox="0 0 44 29">
  <metadata><?xpacket begin="﻿" id="W5M0MpCehiHzreSzNTczkc9d"?>
<x:xmpmeta xmlns:x="adobe:ns:meta/" x:xmptk="Adobe XMP Core 5.6-c142 79.160924, 2017/07/13-01:06:39        ">
   <rdf:RDF xmlns:rdf="http://www.w3.org/1999/02/22-rdf-syntax-ns#">
      <rdf:Description rdf:about=""/>
   </rdf:RDF>
</x:xmpmeta>
                                                                                                    
                                                                                                    
                                                                                                    
                                                                                                    
                                                                                                    
                                                                                                    
                                                                                                    
                                                                                                    
                                                                                                    
                                                                                                    
                                                                                                    
                                                                                                    
                                                                                                    
                                                                                                    
                                                                                                    
                                                                                                    
                                                                                                    
                                                                                                    
                                                                                                    
                                                                                                    
                           
<?xpacket end="w"?></metadata>
<defs>
    <style>
      .cls-1 {
        fill: #fff;
        fill-rule: evenodd;
      }
    </style>
  </defs>
  <path id="room-lux" class="cls-1" d="M1358.44,1273.87l-1.89,15.76h0.36a1.685,1.685,0,1,1,0,3.37h-33.82a1.685,1.685,0,1,1,0-3.37h0.36l-1.89-15.76a5.06,5.06,0,1,1,6.63-4.82,5.011,5.011,0,0,1-1.68,3.74l6.22,4.47,4.2-4.18a5.014,5.014,0,0,1-2.02-4.03,5.09,5.09,0,0,1,10.18,0,5,5,0,0,1-2.03,4.03l4.21,4.18,6.22-4.47a5.011,5.011,0,0,1-1.68-3.74A5.1,5.1,0,1,1,1358.44,1273.87Zm-35.35-6.5a1.685,1.685,0,1,0,1.7,1.68A1.694,1.694,0,0,0,1323.09,1267.37Zm16.91,0a1.685,1.685,0,1,0,1.7,1.68A1.688,1.688,0,0,0,1340,1267.37Zm8.09,13.46a1.714,1.714,0,0,1-2.2-.18l-5.89-5.85-5.89,5.85a1.714,1.714,0,0,1-2.2.18l-6.68-4.8,1.63,13.6h26.28l1.63-13.6Zm8.82-13.46a1.685,1.685,0,1,0,1.7,1.68A1.688,1.688,0,0,0,1356.91,1267.37Z" transform="translate(-1318 -1264)"/>
</svg>
