<svg xmlns="http://www.w3.org/2000/svg" width="59" height="65" viewBox="0 0 59 65">
  <metadata><?xpacket begin="﻿" id="W5M0MpCehiHzreSzNTczkc9d"?>
<x:xmpmeta xmlns:x="adobe:ns:meta/" x:xmptk="Adobe XMP Core 5.6-c142 79.160924, 2017/07/13-01:06:39        ">
   <rdf:RDF xmlns:rdf="http://www.w3.org/1999/02/22-rdf-syntax-ns#">
      <rdf:Description rdf:about=""/>
   </rdf:RDF>
</x:xmpmeta>
                                                                                                    
                                                                                                    
                                                                                                    
                                                                                                    
                                                                                                    
                                                                                                    
                                                                                                    
                                                                                                    
                                                                                                    
                                                                                                    
                                                                                                    
                                                                                                    
                                                                                                    
                                                                                                    
                                                                                                    
                                                                                                    
                                                                                                    
                                                                                                    
                                                                                                    
                                                                                                    
                           
<?xpacket end="w"?></metadata>
<defs>
    <style>
      .cls-1 {
        fill: #fff;
        fill-rule: evenodd;
      }
    </style>
  </defs>
  <path id="room-comfort" class="cls-1" d="M609.183,1246.41a1.158,1.158,0,0,0-1.359-.31c-8.086,2.95-16.916,2.69-24.916,5.95a1.509,1.509,0,0,0-.915,1.09,1.656,1.656,0,0,0-.137.49,49.98,49.98,0,0,0-.2,9.66,16.965,16.965,0,0,1-1.056-8.04,1.311,1.311,0,0,0-1.927-1.26,1.424,1.424,0,0,0-.589.2,68.43,68.43,0,0,0-11.045,8.17,1.257,1.257,0,0,0-.116,1.84q1.278,4.545,2.819,9.03a9.286,9.286,0,0,1-2.765-5.88,1.483,1.483,0,0,0-2.8-.57,1.465,1.465,0,0,0-.194.37,36.389,36.389,0,0,0-.3,24.22,146.384,146.384,0,0,0-12.458,17.5,1.435,1.435,0,0,0,2.476,1.45,144.125,144.125,0,0,1,13.21-18.33,1.837,1.837,0,0,0,.43.09c12.208,0.85,22.048-5.09,31.554-12.11,1.371-1.01.234-3.25-1.133-2.67a1.918,1.918,0,0,0-.33.03,15.662,15.662,0,0,1-6.847-.11,0.763,0.763,0,0,0-.115-0.1,0.893,0.893,0,0,1-.456-0.69,36.017,36.017,0,0,0,10.152-.47,1.284,1.284,0,0,0,.587-0.26,1.323,1.323,0,0,0,.4-0.29c7.289-7.49,8.965-17.61,8.845-27.74A1.323,1.323,0,0,0,609.183,1246.41Zm-9.9,26.79a34.548,34.548,0,0,1-9.9.29,1.5,1.5,0,0,0-1.194.42,3.552,3.552,0,0,0,.567,5.49,1.356,1.356,0,0,0,.782.54,17.731,17.731,0,0,0,3.664.56c-7.273,4.98-14.888,8.84-23.934,8.76a149.677,149.677,0,0,1,21.913-20.12,1.486,1.486,0,0,0,.378-0.41,1.811,1.811,0,0,0,.27-0.18,49.707,49.707,0,0,0,10.083-10.94c1.056-1.54-1.431-2.98-2.476-1.46a47.375,47.375,0,0,1-9.635,10.36,1.238,1.238,0,0,0-.281.3,154.462,154.462,0,0,0-23.644,21.97,33.362,33.362,0,0,1-.39-16.52,12.333,12.333,0,0,0,3.164,3.87,0.182,0.182,0,0,0,.059.04,1.488,1.488,0,0,0,1.515.52,3.408,3.408,0,0,0,2.436-2.64,1.452,1.452,0,0,0,.043-0.34,1.335,1.335,0,0,0-.043-0.79c-1.049-3.01-2-6.07-2.869-9.14a67.462,67.462,0,0,1,7.872-5.94,18.215,18.215,0,0,0,2.056,8.07,1.235,1.235,0,0,0,1.106.72,1.5,1.5,0,0,0,1.394-.02,4.322,4.322,0,0,0,1.937-1.98,1.2,1.2,0,0,0,.387-1.07,48.342,48.342,0,0,1,.1-9.09c7.259-2.69,15.138-2.76,22.492-5.09C607.056,1258.08,605.491,1266.69,599.281,1273.2Z" transform="translate(-551 -1246)"/>
</svg>
