<svg xmlns="http://www.w3.org/2000/svg" width="43.906" height="42.37" viewBox="0 0 43.906 42.37">
  <metadata><?xpacket begin="﻿" id="W5M0MpCehiHzreSzNTczkc9d"?>
<x:xmpmeta xmlns:x="adobe:ns:meta/" x:xmptk="Adobe XMP Core 5.6-c142 79.160924, 2017/07/13-01:06:39        ">
   <rdf:RDF xmlns:rdf="http://www.w3.org/1999/02/22-rdf-syntax-ns#">
      <rdf:Description rdf:about=""/>
   </rdf:RDF>
</x:xmpmeta>
                                                                                                    
                                                                                                    
                                                                                                    
                                                                                                    
                                                                                                    
                                                                                                    
                                                                                                    
                                                                                                    
                                                                                                    
                                                                                                    
                                                                                                    
                                                                                                    
                                                                                                    
                                                                                                    
                                                                                                    
                                                                                                    
                                                                                                    
                                                                                                    
                                                                                                    
                                                                                                    
                           
<?xpacket end="w"?></metadata>
<defs>
    <style>
      .cls-1 {
        fill: #ffffff;
        fill-rule: evenodd;
      }
    </style>
  </defs>
  <path id="title-sign" class="cls-1" d="M980.443,1915.09c-1.817,2.48-4.551,3.64-6.65,2.8a3.3,3.3,0,0,1-.771-0.42c-2.081-1.51-2.082-4.93,0-7.78,1.817-2.49,4.551-3.64,6.651-2.81a3.386,3.386,0,0,1,.772.43C982.523,1908.82,982.523,1912.24,980.443,1915.09Zm-13.386-9.99c-2.889-1.64-3.4-6.2-1.141-10.18,2.08-3.67,5.946-5.65,8.8-4.51a3.942,3.942,0,0,1,.541.26,5.282,5.282,0,0,1,2.48,4.11,9.936,9.936,0,0,1-1.34,6.07C974.183,1904.75,969.958,1906.74,967.057,1905.1Zm-0.019,17.95a4.226,4.226,0,0,1-3.877,3.27,2.447,2.447,0,0,1-1.32-.15c-1.1-.43-2.008-1.73-2.975-3.11l-0.267-.39c-0.856-1.25-2.447-3.59-4.488-4.41-1.886-.74-4.12-0.25-5.6.08-0.31.07-.588,0.13-0.823,0.17-1.753.31-3.268,0.57-4.378,0.13a2.673,2.673,0,0,1-1.16-.93,5.073,5.073,0,0,1-.431-4.72,17.038,17.038,0,0,1,7.665-7.04,12.241,12.241,0,0,1,9.919-.24C969.233,1909.66,967.9,1920.56,967.038,1923.05ZM954.8,1900.23a5.254,5.254,0,0,1-.57-0.18c-2.854-1.14-4.3-5.23-3.3-9.32a9.934,9.934,0,0,1,3.2-5.34,5.3,5.3,0,0,1,4.625-1.29,3.749,3.749,0,0,1,.571.19c2.854,1.13,4.3,5.23,3.3,9.32C961.536,1898.05,958.025,1901.02,954.8,1900.23Zm-12.828,4.89a3.556,3.556,0,0,1-.853-0.22c-2.1-.83-3.294-3.55-2.9-6.61,0.443-3.5,2.791-5.98,5.342-5.65a3.556,3.556,0,0,1,.853.22c2.1,0.83,3.3,3.55,2.906,6.61C946.872,1902.97,944.524,1905.45,941.973,1905.12Z" transform="translate(-938.125 -1883.97)"/>
</svg>
