<svg xmlns="http://www.w3.org/2000/svg" width="18" height="18" viewBox="0 0 18 18">
  <metadata><?xpacket begin="﻿" id="W5M0MpCehiHzreSzNTczkc9d"?>
<x:xmpmeta xmlns:x="adobe:ns:meta/" x:xmptk="Adobe XMP Core 5.6-c142 79.160924, 2017/07/13-01:06:39        ">
   <rdf:RDF xmlns:rdf="http://www.w3.org/1999/02/22-rdf-syntax-ns#">
      <rdf:Description rdf:about=""/>
   </rdf:RDF>
</x:xmpmeta>
                                                                                                    
                                                                                                    
                                                                                                    
                                                                                                    
                                                                                                    
                                                                                                    
                                                                                                    
                                                                                                    
                                                                                                    
                                                                                                    
                                                                                                    
                                                                                                    
                                                                                                    
                                                                                                    
                                                                                                    
                                                                                                    
                                                                                                    
                                                                                                    
                                                                                                    
                                                                                                    
                           
<?xpacket end="w"?></metadata>
<defs>
    <style>
      .cls-1 {
        fill: #3b0513;
        fill-rule: evenodd;
      }
    </style>
  </defs>
  <path id="calendar" class="cls-1" d="M932.722,532H915.994V516.129l2.575,0.032V516.8a1.93,1.93,0,0,0,3.859,0v-0.636h5.149V516.8a1.93,1.93,0,0,0,3.86,0v-0.636h2.551L934.006,532Zm0-11.4H917.281v10.138h15.441V520.6Zm-11.485,6.048h-2.026v-1.761h2.026v1.761Zm0,2.985h-2.026v-1.761h2.026v1.761Zm3.222-5.91h-2.027v-1.763h2.027v1.763Zm0,2.925h-2.027v-1.761h2.027v1.761Zm0,2.985h-2.027v-1.761h2.027v1.761Zm3.281-5.91h-2.029v-1.763h2.029v1.763Zm0,2.925h-2.029v-1.761h2.029v1.761Zm0,2.985h-2.029v-1.761h2.029v1.761Zm3.038-5.91h-2.027v-1.763h2.027v1.763Zm0,2.925h-2.027v-1.761h2.027v1.761Zm0,2.985h-2.027v-1.761h2.027v1.761Zm-1.294-11.83a1.254,1.254,0,0,1-1.266-1.246v-1.3a1.268,1.268,0,0,1,2.535,0v1.3A1.256,1.256,0,0,1,929.484,517.8Zm-9.007,0a1.254,1.254,0,0,1-1.266-1.246v-1.3a1.267,1.267,0,0,1,2.534,0v1.3A1.254,1.254,0,0,1,920.477,517.8Z" transform="translate(-916 -514)"/>
</svg>
