<svg xmlns="http://www.w3.org/2000/svg" width="24.969" height="24" viewBox="0 0 24.969 24"><path fill="#bd4f1a" stroke="#bd4f1a" stroke-width="1px" fill-rule="evenodd" d="M677.577,7787.8a6.734,6.734,0,0,0-5.422.13,9.264,9.264,0,0,0-4.19,3.82,2.73,2.73,0,0,0,.236,2.56,1.4,1.4,0,0,0,.634.51,4.916,4.916,0,0,0,2.393-.07c0.128-.02.28-0.06,0.45-0.09a5.445,5.445,0,0,1,3.06-.05,6.369,6.369,0,0,1,2.453,2.4l0.146,0.21a4.562,4.562,0,0,0,1.627,1.69,1.452,1.452,0,0,0,.721.08,2.315,2.315,0,0,0,2.119-1.78C682.276,7795.86,683,7789.94,677.577,7787.8Zm-2.773-3.07a1.677,1.677,0,0,0,.311.09c1.763,0.44,3.682-1.18,4.278-3.59,0.548-2.22-.244-4.44-1.8-5.06a3.153,3.153,0,0,0-.312-0.1,2.923,2.923,0,0,0-2.529.7,5.4,5.4,0,0,0-1.749,2.9C672.451,7781.89,673.243,7784.11,674.8,7784.73Zm-5.368-3.91a3.509,3.509,0,0,0-.467-0.12c-1.394-.17-2.678,1.17-2.92,3.07-0.212,1.66.44,3.14,1.588,3.59a1.869,1.869,0,0,0,.466.12c1.4,0.18,2.678-1.17,2.921-3.07A3.27,3.27,0,0,0,669.436,7780.82Zm12.378,6.65c1.586,0.89,3.9-.19,5.106-2.31a5.344,5.344,0,0,0,.732-3.29,2.868,2.868,0,0,0-1.355-2.24,3.2,3.2,0,0,0-.3-0.14c-1.56-.61-3.673.46-4.81,2.45C679.955,7784.1,680.235,7786.58,681.814,7787.47Zm7.318,1.2a1.468,1.468,0,0,0-.423-0.23c-1.147-.46-2.642.17-3.635,1.52-1.137,1.55-1.136,3.4,0,4.22a1.769,1.769,0,0,0,.422.23c1.147,0.46,2.642-.17,3.635-1.52C690.269,7791.34,690.269,7789.49,689.132,7788.67Z" transform="translate(-665.531 -7775.5)"/></svg>