<svg width="16" height="15" xmlns="http://www.w3.org/2000/svg" xmlns:xlink="http://www.w3.org/1999/xlink" xmlns:svgjs="http://svgjs.com/svgjs" viewBox="0.5 0 15 15" fill="#a6b1b7"><svg xmlns="http://www.w3.org/2000/svg" width="16" height="15" viewBox="1.949 1.449 13.561 13.561"><path paint-order="stroke fill markers" fill-rule="evenodd" d="M5.022 11.931a1.787 1.787 0 0 1 .002 2.536h-.002a1.794 1.794 0 0 1-1.273.526c-.498 0-.944-.2-1.272-.526a1.787 1.787 0 0 1 0-2.536 1.798 1.798 0 0 1 2.546 0zm0 0h.001zm-2.545 2.536zM1.95 6.06v2.59c1.69 0 3.29.664 4.486 1.863a6.328 6.328 0 0 1 1.86 4.492h.001v.005h2.6a8.929 8.929 0 0 0-2.625-6.323A8.919 8.919 0 0 0 1.95 6.06zm.005-4.611v2.588c6.043.004 10.955 4.924 10.959 10.973h2.596a13.526 13.526 0 0 0-3.977-9.583A13.512 13.512 0 0 0 1.955 1.45z"/></svg></svg>